<?xml version="1.0" encoding="UTF-8"?><svg id="Camada_2" xmlns="http://www.w3.org/2000/svg" viewBox="0 0 163.87 39.28"><defs><style>.cls-1{fill:#231f20;}</style></defs><g id="Camada_1-2"><path class="cls-1" d="m0,1.58C0,1.04.44.55,1.04.55h22.58c.6,0,1.04.49,1.04,1.04v5.95c0,.55-.44,1.04-1.04,1.04h-15.11v7.85h12.44c.54,0,1.04.49,1.04,1.04v5.95c0,.55-.49,1.04-1.04,1.04h-12.44v13.26c0,.55-.49,1.04-1.04,1.04H1.04c-.6,0-1.04-.49-1.04-1.04V1.58Z"/><path class="cls-1" d="m30.71,1.58c0-.55.49-1.04,1.04-1.04h6.55c.55,0,1.04.49,1.04,1.04v36.11c0,.55-.49,1.04-1.04,1.04h-6.55c-.54,0-1.04-.49-1.04-1.04V1.58Z"/><path class="cls-1" d="m48.66.98c0-.55.49-.98,1.04-.98h1.36l21.77,20.95h.05V1.58c0-.55.44-1.04,1.04-1.04h6.55c.55,0,1.04.49,1.04,1.04v36.71c0,.55-.49.98-1.04.98h-.87c-.16,0-.6-.16-.71-.27l-21.55-21.66h-.05v20.35c0,.55-.44,1.04-1.04,1.04h-6.49c-.54,0-1.04-.49-1.04-1.04l-.05-36.71Z"/><path class="cls-1" d="m107.79,0c5.46,0,9.49,1.69,13.2,5.07.49.44.49,1.09.05,1.53l-4.25,4.42c-.38.38-.98.38-1.36,0-2.02-1.8-4.69-2.78-7.36-2.78-6.16,0-10.69,5.13-10.69,11.24s4.58,11.07,10.75,11.07c2.56,0,5.35-.93,7.31-2.62.38-.33,1.09-.33,1.42.05l4.25,4.53c.38.38.33,1.09-.05,1.47-3.71,3.6-8.4,5.29-13.26,5.29-10.91,0-19.69-8.67-19.69-19.58S96.88,0,107.79,0Z"/><path class="cls-1" d="m144.23,0c10.91,0,19.64,8.78,19.64,19.69s-8.73,19.58-19.64,19.58-19.58-8.67-19.58-19.58S133.32,0,144.23,0Zm0,30.55c6,0,10.91-4.91,10.91-10.86s-4.91-10.96-10.91-10.96-10.86,4.96-10.86,10.96,4.91,10.86,10.86,10.86Z"/></g></svg>