<?xml version="1.0" encoding="UTF-8"?><svg id="Camada_2" xmlns="http://www.w3.org/2000/svg" viewBox="0 0 284.48 78.87"><defs><style>.cls-1{fill:#652d90;}.cls-2{fill:#231f20;}</style></defs><g id="Camada_1-2"><path class="cls-1" d="m93.47,45.6c1.48-4.65,2.26-9.56,2.26-14.58-4.6,0-8.94,1.68-12.28,4.56L47.87,0,12.28,35.58C8.94,32.7,4.6,31.02,0,31.02h0c0,5.02.78,9.93,2.26,14.58l-.03.03h0s.04.03.06.05c2.29,7.15,6.26,13.71,11.73,19.18,9.33,9.33,21.59,14,33.85,14s24.52-4.67,33.85-14c5.47-5.47,9.44-12.03,11.73-19.18.02-.02.04-.03.06-.05l-.03-.03Zm-45.6-24.06l24.09,24.09c1.09,1.09,2.3,1.97,3.59,2.66-1.3,2.07-2.84,4.02-4.61,5.8-1.58,1.58-3.28,2.96-5.08,4.15l-27.35-27.35,9.35-9.35Zm-23.07,32.55c-1.77-1.77-3.31-3.72-4.61-5.8,1.29-.69,2.51-1.58,3.6-2.66l3.96-3.96,21.91,21.91c-8.94.49-18.05-2.67-24.86-9.49Z"/><path class="cls-2" d="m120.61,26.48c0-.55.44-1.04,1.04-1.04h22.58c.6,0,1.04.49,1.04,1.04v5.95c0,.55-.44,1.04-1.04,1.04h-15.11v7.85h12.44c.54,0,1.04.49,1.04,1.04v5.95c0,.55-.49,1.04-1.04,1.04h-12.44v13.26c0,.55-.49,1.04-1.04,1.04h-6.44c-.6,0-1.04-.49-1.04-1.04V26.48Z"/><path class="cls-2" d="m151.32,26.48c0-.55.49-1.04,1.04-1.04h6.55c.55,0,1.04.49,1.04,1.04v36.11c0,.55-.49,1.04-1.04,1.04h-6.55c-.54,0-1.04-.49-1.04-1.04V26.48Z"/><path class="cls-2" d="m169.27,25.88c0-.55.49-.98,1.04-.98h1.36l21.77,20.95h.05v-19.37c0-.55.44-1.04,1.04-1.04h6.55c.55,0,1.04.49,1.04,1.04v36.71c0,.55-.49.98-1.04.98h-.87c-.16,0-.6-.16-.71-.27l-21.55-21.66h-.05v20.35c0,.55-.44,1.04-1.04,1.04h-6.49c-.54,0-1.04-.49-1.04-1.04l-.05-36.71Z"/><path class="cls-2" d="m228.4,24.9c5.46,0,9.49,1.69,13.2,5.07.49.44.49,1.09.05,1.53l-4.25,4.42c-.38.38-.98.38-1.36,0-2.02-1.8-4.69-2.78-7.36-2.78-6.16,0-10.69,5.13-10.69,11.24s4.58,11.07,10.75,11.07c2.56,0,5.35-.93,7.31-2.62.38-.33,1.09-.33,1.42.05l4.25,4.53c.38.38.33,1.09-.05,1.47-3.71,3.6-8.4,5.29-13.26,5.29-10.91,0-19.69-8.67-19.69-19.58s8.78-19.69,19.69-19.69Z"/><path class="cls-2" d="m264.84,24.9c10.91,0,19.64,8.78,19.64,19.69s-8.73,19.58-19.64,19.58-19.58-8.67-19.58-19.58,8.67-19.69,19.58-19.69Zm0,30.55c6,0,10.91-4.91,10.91-10.86s-4.91-10.96-10.91-10.96-10.86,4.96-10.86,10.96,4.91,10.86,10.86,10.86Z"/></g></svg>