<?xml version="1.0" encoding="UTF-8"?><svg id="Camada_2" xmlns="http://www.w3.org/2000/svg" viewBox="0 0 95.73 78.87"><defs><style>.cls-1{fill:#652d90;}</style></defs><g id="Camada_1-2"><path class="cls-1" d="m93.47,45.6c1.48-4.65,2.26-9.56,2.26-14.58-4.6,0-8.94,1.68-12.28,4.56L47.87,0,12.28,35.58C8.94,32.7,4.6,31.02,0,31.02h0c0,5.02.78,9.93,2.26,14.58l-.03.03h0s.04.03.06.05c2.29,7.15,6.26,13.71,11.73,19.18,9.33,9.33,21.59,14,33.85,14s24.52-4.67,33.85-14c5.47-5.47,9.44-12.03,11.73-19.18.02-.02.04-.03.06-.05l-.03-.03Zm-45.6-24.06l24.09,24.09c1.09,1.09,2.3,1.97,3.59,2.66-1.3,2.07-2.84,4.02-4.61,5.8-1.58,1.58-3.28,2.96-5.08,4.15l-27.35-27.35,9.35-9.35Zm-23.07,32.55c-1.77-1.77-3.31-3.72-4.61-5.8,1.29-.69,2.51-1.58,3.6-2.66l3.96-3.96,21.91,21.91c-8.94.49-18.05-2.67-24.86-9.49Z"/></g></svg>