<?xml version="1.0" encoding="UTF-8"?>
<svg width="700pt" height="700pt" version="1.1" viewBox="0 0 700 700" xmlns="http://www.w3.org/2000/svg">
 <g>
  <path d="m493.28 198.09c-11.664-69.488-71.195-120.43-143.28-120.43-39.109 0-75.648 15.176-102.73 42.57-21.363 21.09-35.496 48.398-40.539 77.914-59.633 18.645-101.73 75.094-101.73 138.73 0 39.117 15.176 75.656 42.57 102.73 21.004 21.312 47.98 35.324 77.57 40.418 7.7266 1.5391 16.246 2.3242 25.328 2.3242h199.06c9.082 0 17.602-0.78516 24.832-2.2227 69.906-11.895 120.64-72.137 120.64-143.25 0-39.117-15.176-75.656-42.562-102.71-16.602-16.883-36.863-29.207-59.156-36.074zm-25.277 247.61c-5.4688 1.0938-11.68 1.6406-18.473 1.6406h-199.06c-6.793 0-13.004-0.54688-18.926-1.7266-22.781-3.9297-43.203-14.508-59.207-30.746-20.852-20.609-32.336-48.312-32.336-77.996 0-51.543 36.309-96.848 86.328-107.73l12.656-2.7695 1.0586-12.902c2.1367-25.91 13.434-50.176 31.977-68.48 20.602-20.848 48.297-32.332 77.98-32.332 57.961 0 105.23 43.34 109.96 100.81l1.0664 12.988 12.742 2.6992c20.379 4.3242 38.957 14.543 53.902 29.719 20.848 20.613 32.332 48.316 32.332 78 0 53.988-38.484 99.719-91.996 108.83z"/>
  <path d="m390.13 305.91-22.629 22.625v-107.6c0-9.6719-7.8359-17.5-17.5-17.5s-17.5 7.8281-17.5 17.5v107.6l-22.629-22.629c-6.8359-6.8359-17.91-6.8359-24.746 0s-6.8359 17.91 0 24.746l52.488 52.488c1.6172 1.6211 3.5547 2.9023 5.6992 3.7891 2.1406 0.88672 4.4102 1.3516 6.6875 1.3516s4.5469-0.46484 6.6836-1.3477c2.1445-0.89062 4.082-2.1719 5.6992-3.7891l52.488-52.488c6.8359-6.8359 6.8359-17.91 0-24.746-6.8359-6.8359-17.906-6.8359-24.742 0z"/>
 </g>
</svg>
