<?xml version="1.0" encoding="UTF-8"?>
<svg width="700pt" height="700pt" version="1.1" viewBox="0 0 700 700" xmlns="http://www.w3.org/2000/svg">
 <g>
  <path d="m554.17 175h-256.67c-10.824 0.015625-21.199 4.3203-28.855 11.973-7.6523 7.6562-11.957 18.031-11.973 28.855v163.34c0.015625 10.824 4.3203 21.199 11.973 28.855 7.6562 7.6523 18.031 11.957 28.855 11.973h256.67c10.824-0.015625 21.199-4.3203 28.855-11.973 7.6523-7.6562 11.957-18.031 11.973-28.855v-163.34c-0.015625-10.824-4.3203-21.199-11.973-28.855-7.6562-7.6523-18.031-11.957-28.855-11.973zm-24.5 35-100.19 84.789c-2.1367 1.8008-5.2656 1.8008-7.4023 0l-100.08-84.789zm24.5 175h-256.67c-3.2188 0-5.8281-2.6094-5.8281-5.8281v-148.96l107.77 91.227v0.003906c7.3477 6.2969 16.711 9.7617 26.391 9.7617s19.039-3.4648 26.391-9.7617l107.78-91.23v148.96c0 3.2188-2.6094 5.8281-5.8281 5.8281z"/>
  <path d="m140 191.41c-6.2539 0-12.031 3.3359-15.156 8.75-3.125 5.4141-3.125 12.086 0 17.5 3.125 5.4141 8.9023 8.75 15.156 8.75h70c6.2539 0 12.031-3.3359 15.156-8.75 3.125-5.4141 3.125-12.086 0-17.5-3.125-5.4141-8.9023-8.75-15.156-8.75z"/>
  <path d="m210 296.96c0-4.6406-1.8438-9.0938-5.125-12.375s-7.7344-5.125-12.375-5.125h-70c-6.2539 0-12.031 3.3359-15.156 8.75-3.125 5.4141-3.125 12.086 0 17.5 3.125 5.4141 8.9023 8.75 15.156 8.75h70c4.6406 0 9.0938-1.8438 12.375-5.125s5.125-7.7344 5.125-12.375z"/>
  <path d="m211.1 367.5h-70c-6.25 0-12.027 3.3359-15.156 8.75-3.125 5.4141-3.125 12.086 0 17.5 3.1289 5.4141 8.9062 8.75 15.156 8.75h70c6.2539 0 12.031-3.3359 15.156-8.75s3.125-12.086 0-17.5-8.9023-8.75-15.156-8.75z"/>
 </g>
</svg>
